<svg width="156" height="17" viewBox="0 0 156 17" fill="none" xmlns="http://www.w3.org/2000/svg">
<path d="M4.296 12.4L2.712 16H0L6.96 0.0639992H9.672L16.632 16H13.824L12.24 12.4H4.296ZM11.184 9.976L8.28 3.328L5.352 9.976H11.184ZM23.0966 16.312C21.6246 16.312 20.4406 15.872 19.5446 14.992C18.6646 14.112 18.2246 12.936 18.2246 11.464V4.792H20.7686V11.104C20.7686 11.984 21.0006 12.68 21.4646 13.192C21.9286 13.704 22.6086 13.96 23.5046 13.96C24.3526 13.96 25.0806 13.648 25.6886 13.024C26.2966 12.4 26.6006 11.576 26.6006 10.552V4.792H29.1446V16H26.6006V14.968C25.8326 15.864 24.6646 16.312 23.0966 16.312ZM32.7849 4.792H35.3289V6.16C35.6169 5.728 36.0569 5.376 36.6489 5.104C37.2569 4.832 37.9609 4.696 38.7609 4.696H39.7929V7.12H38.7609C37.6729 7.12 36.8249 7.432 36.2169 8.056C35.6249 8.68 35.3289 9.52 35.3289 10.576V16H32.7849V4.792ZM47.3702 4.48C49.0662 4.48 50.4822 5.048 51.6182 6.184C52.7702 7.304 53.3462 8.712 53.3462 10.408C53.3462 12.088 52.7702 13.496 51.6182 14.632C50.4822 15.752 49.0662 16.312 47.3702 16.312C45.6582 16.312 44.2262 15.752 43.0742 14.632C41.9382 13.512 41.3702 12.104 41.3702 10.408C41.3702 8.712 41.9382 7.304 43.0742 6.184C44.2262 5.048 45.6582 4.48 47.3702 4.48ZM47.3702 13.96C48.3782 13.96 49.2022 13.624 49.8422 12.952C50.4822 12.28 50.8022 11.432 50.8022 10.408C50.8022 9.368 50.4822 8.512 49.8422 7.84C49.2022 7.168 48.3782 6.832 47.3702 6.832C46.3782 6.832 45.5542 7.176 44.8982 7.864C44.2422 8.536 43.9142 9.384 43.9142 10.408C43.9142 11.416 44.2422 12.264 44.8982 12.952C45.5542 13.624 46.3782 13.96 47.3702 13.96ZM56.3162 4.792H58.8602V6.16C59.1482 5.728 59.5882 5.376 60.1802 5.104C60.7882 4.832 61.4922 4.696 62.2922 4.696H63.3242V7.12H62.2922C61.2042 7.12 60.3562 7.432 59.7482 8.056C59.1562 8.68 58.8602 9.52 58.8602 10.576V16H56.3162V4.792ZM70.6982 4.48C72.3622 4.48 73.6982 4.872 74.7062 5.656C75.7142 6.44 76.2182 7.536 76.2182 8.944V16H73.6742V14.968C72.8262 15.864 71.5702 16.312 69.9062 16.312C68.5302 16.312 67.4342 15.992 66.6182 15.352C65.8182 14.696 65.4182 13.76 65.4182 12.544C65.4182 11.664 65.6662 10.952 66.1622 10.408C66.6742 9.848 67.2902 9.464 68.0102 9.256C68.7462 9.048 69.5862 8.944 70.5302 8.944H73.6742C73.6742 8.224 73.4022 7.696 72.8582 7.36C72.3142 7.008 71.6022 6.832 70.7222 6.832C69.2022 6.832 68.2502 7.312 67.8662 8.272H65.1542C65.4742 7.056 66.1382 6.12 67.1462 5.464C68.1702 4.808 69.3542 4.48 70.6982 4.48ZM73.6742 11.584V10.984H70.5062C68.8102 10.984 67.9622 11.504 67.9622 12.544C67.9622 13.056 68.1702 13.456 68.5862 13.744C69.0022 14.016 69.5782 14.152 70.3142 14.152C71.3062 14.152 72.1142 13.928 72.7382 13.48C73.3622 13.016 73.6742 12.384 73.6742 11.584ZM96.0219 2.488H87.6699V6.808H95.8539V9.232H87.6699V13.576H96.0219V16H85.0299V0.0639992H96.0219V2.488ZM109.476 8.032H106.716C106.252 7.136 105.236 6.688 103.668 6.688C102.932 6.688 102.348 6.808 101.916 7.048C101.5 7.272 101.292 7.592 101.292 8.008C101.292 8.376 101.46 8.656 101.796 8.848C102.132 9.024 102.652 9.144 103.356 9.208L105.492 9.376C108.068 9.584 109.356 10.696 109.356 12.712C109.356 13.752 108.892 14.616 107.964 15.304C107.052 15.976 105.812 16.312 104.244 16.312C102.644 16.312 101.332 15.976 100.308 15.304C99.3 14.632 98.668 13.728 98.412 12.592H101.196C101.564 13.6 102.668 14.104 104.508 14.104C105.196 14.104 105.748 13.992 106.164 13.768C106.596 13.544 106.812 13.232 106.812 12.832C106.812 12.448 106.644 12.16 106.308 11.968C105.972 11.776 105.46 11.648 104.772 11.584L102.492 11.368C101.228 11.24 100.284 10.912 99.66 10.384C99.052 9.856 98.748 9.096 98.748 8.104C98.748 7.064 99.196 6.2 100.092 5.512C101.004 4.824 102.212 4.48 103.716 4.48C105.316 4.48 106.596 4.808 107.556 5.464C108.532 6.104 109.172 6.96 109.476 8.032ZM113.009 1.984H115.553V4.792H119.057V7.024H115.553V12.088C115.553 13.208 116.121 13.768 117.257 13.768H119.057V16H117.233C115.857 16 114.809 15.696 114.089 15.088C113.369 14.464 113.009 13.608 113.009 12.52V7.024H110.945V4.792H113.009V1.984ZM126.55 4.48C128.214 4.48 129.55 4.872 130.558 5.656C131.566 6.44 132.07 7.536 132.07 8.944V16H129.526V14.968C128.678 15.864 127.422 16.312 125.758 16.312C124.382 16.312 123.286 15.992 122.47 15.352C121.67 14.696 121.27 13.76 121.27 12.544C121.27 11.664 121.518 10.952 122.014 10.408C122.526 9.848 123.142 9.464 123.862 9.256C124.598 9.048 125.438 8.944 126.382 8.944H129.526C129.526 8.224 129.254 7.696 128.71 7.36C128.166 7.008 127.454 6.832 126.574 6.832C125.054 6.832 124.102 7.312 123.718 8.272H121.006C121.326 7.056 121.99 6.12 122.998 5.464C124.022 4.808 125.206 4.48 126.55 4.48ZM129.526 11.584V10.984H126.358C124.662 10.984 123.814 11.504 123.814 12.544C123.814 13.056 124.022 13.456 124.438 13.744C124.854 14.016 125.43 14.152 126.166 14.152C127.158 14.152 127.966 13.928 128.59 13.48C129.214 13.016 129.526 12.384 129.526 11.584ZM136.4 1.984H138.944V4.792H142.448V7.024H138.944V12.088C138.944 13.208 139.512 13.768 140.648 13.768H142.448V16H140.624C139.248 16 138.2 15.696 137.48 15.088C136.76 14.464 136.4 13.608 136.4 12.52V7.024H134.336V4.792H136.4V1.984ZM150.307 13.96C151.523 13.96 152.403 13.552 152.947 12.736H155.707C155.291 13.84 154.595 14.712 153.619 15.352C152.643 15.992 151.539 16.312 150.307 16.312C148.595 16.312 147.171 15.752 146.035 14.632C144.899 13.512 144.331 12.096 144.331 10.384C144.331 8.704 144.883 7.304 145.987 6.184C147.091 5.048 148.491 4.48 150.187 4.48C151.835 4.48 153.195 5.04 154.267 6.16C155.339 7.264 155.875 8.64 155.875 10.288C155.875 10.8 155.859 11.136 155.827 11.296H146.971C147.115 12.096 147.491 12.744 148.099 13.24C148.723 13.72 149.459 13.96 150.307 13.96ZM150.187 6.76C149.355 6.76 148.643 6.992 148.051 7.456C147.475 7.904 147.131 8.504 147.019 9.256H153.187C153.059 8.488 152.723 7.88 152.179 7.432C151.651 6.984 150.987 6.76 150.187 6.76Z" fill="#F7F7F7"/>
</svg>
